<?xml version="1.0" encoding="utf-8"?>
<!-- Generator: Adobe Illustrator 27.1.1, SVG Export Plug-In . SVG Version: 6.00 Build 0)  -->
<svg version="1.1" xmlns="http://www.w3.org/2000/svg" xmlns:xlink="http://www.w3.org/1999/xlink" x="0px" y="0px"
	 viewBox="0 0 500 616.6" style="enable-background:new 0 0 500 616.6;" xml:space="preserve">
<style type="text/css">
	.st0{display:none;}
	.st1{display:inline;fill:#FFFEF7;}
	
		.st2{display:inline;fill:none;stroke:#000000;stroke-width:1.4628;stroke-linecap:round;stroke-linejoin:round;stroke-miterlimit:10;}
	.st3{display:inline;}
	.st4{fill:none;stroke:#000000;stroke-width:1.4628;stroke-linecap:round;stroke-linejoin:round;stroke-miterlimit:10;}
	.st5{fill:none;stroke:#000000;stroke-width:1.5338;stroke-linecap:round;stroke-linejoin:round;stroke-miterlimit:10;}
	
		.st6{display:inline;fill:none;stroke:#000000;stroke-width:1.5338;stroke-linecap:round;stroke-linejoin:round;stroke-miterlimit:10;}
	.st7{fill:none;stroke:#000000;stroke-width:1.5722;stroke-linecap:round;stroke-linejoin:round;stroke-miterlimit:10;}
	.st8{fill:none;stroke:#000000;stroke-width:1.5384;stroke-linecap:round;stroke-linejoin:round;stroke-miterlimit:10;}
	
		.st9{display:inline;fill:none;stroke:#000000;stroke-width:1.5384;stroke-linecap:round;stroke-linejoin:round;stroke-miterlimit:10;}
</style>
<g id="background" class="st0">
	<rect class="st1" width="500" height="616.6"/>
</g>
<g id="objects">
	<g>
		<g class="st0">
			<line class="st2" x1="70.46" y1="548.62" x2="429.54" y2="548.62"/>
			<g class="st3">
				<g>
					<path d="M59.58,548.62c8.52-2.32,11.31-5.9,16.25-5.9c5.43,0,6.36,5.9,6.36,5.9H59.58z"/>
					<path d="M59.58,548.62c8.52,2.32,11.31,5.9,16.25,5.9c5.43,0,6.36-5.9,6.36-5.9H59.58z"/>
				</g>
				<g>
					<path d="M440.42,548.62c-8.52-2.32-11.31-5.9-16.25-5.9c-5.43,0-6.36,5.9-6.36,5.9H440.42z"/>
					<path d="M440.42,548.62c-8.52,2.32-11.31,5.9-16.25,5.9c-5.43,0-6.36-5.9-6.36-5.9H440.42z"/>
				</g>
			</g>
			<g class="st3">
				<g>
					<polygon points="241.35,548.62 234.24,543.7 227.13,548.62 234.24,553.54 					"/>
					<polygon points="272.87,548.62 265.76,543.7 258.65,548.62 265.76,553.54 					"/>
				</g>
				<polygon points="261.39,548.62 250,540.73 238.61,548.62 250,556.51 				"/>
			</g>
		</g>
		<g class="st0">
			<g class="st3">
				<path class="st4" d="M255.06,60.09c-7.9,4.62-10.75,13.32-10.46,22.31c0.29,8.99,6.89,17.69,15.86,19.74
					c8.97,2.05,19.31-3.51,21.55-12.23c1.1-4.28-0.25-9.66-4.43-11.32c-4.77-1.89-10.35,2.75-10.46,7.77
					c-0.11,5.03,3.86,9.45,8.54,11.55c4.68,2.1,7.64,4.65,16.48,4.65H419"/>
				<path class="st4" d="M81,102.57h126.86c8.84,0,11.8-2.55,16.48-4.65c4.68-2.1,8.65-6.52,8.54-11.55
					c-0.11-5.03-5.69-9.67-10.46-7.77c-4.18,1.66-5.53,7.04-4.43,11.32c2.24,8.72,12.58,14.28,21.55,12.23
					c8.97-2.05,15.57-10.75,15.86-19.74c0.29-8.99-2.55-17.7-10.46-22.31"/>
			</g>
			<g class="st3">
				<polygon points="76.87,96.06 59.58,102.57 76.87,109.08 86.19,102.57 				"/>
				<polygon points="423.13,96.06 440.42,102.57 423.13,109.08 413.81,102.57 				"/>
			</g>
		</g>
		<g class="st0">
			<g class="st3">
				<path class="st5" d="M237.03,408.7c1.06,1.76,0.52,4.24-1.05,5.56c-1.57,1.33-3.94,1.5-5.79,0.61c-3.11-1.5-4.35-5.77-2.85-8.89
					c1.5-3.11,5.26-4.81,8.68-4.28c3.41,0.53,6.35,3.05,7.8,6.18c1.46,3.13,1.54,6.79,0.67,10.14c-2.44,9.44-12.96,15.98-22.5,13.99
					c-2.36-0.49-4.7-1.49-6.33-3.27s-2.4-4.47-1.48-6.7c0.91-2.23,3.74-3.64,5.92-2.6c2.3,1.09,2.94,4.31,1.89,6.63
					c-1.05,2.32-3.31,3.85-5.62,4.93c0,0-9.37,2.89-14.21,2.38H79.86"/>
				<path class="st5" d="M262.97,408.7c-1.06,1.76-0.52,4.24,1.05,5.56c1.57,1.33,3.94,1.5,5.79,0.61c3.11-1.5,4.35-5.77,2.85-8.89
					c-1.5-3.11-5.26-4.81-8.68-4.28c-3.41,0.53-6.35,3.05-7.8,6.18c-1.46,3.13-1.54,6.79-0.67,10.14
					c2.44,9.44,12.96,15.98,22.5,13.99c2.36-0.49,4.7-1.49,6.33-3.27c1.62-1.79,2.4-4.47,1.48-6.7c-0.91-2.23-3.74-3.64-5.92-2.6
					c-2.3,1.09-2.94,4.31-1.89,6.63c1.05,2.32,3.31,3.85,5.62,4.93c0,0,9.37,2.89,14.21,2.38h122.3"/>
			</g>
			<path class="st6" d="M420.14,433.38c7.57,0,11.78-1.11,14.17-3.4c3.19-3.05,4.2-8.3,1.99-12.12c-2.21-3.82-7.61-5.55-11.45-3.37
				c-2.06,1.17-3.58,3.45-3.41,5.82c0.17,2.37,2.31,4.55,4.67,4.38c2.37-0.17,4.2-3.09,3.02-5.15"/>
			<path class="st6" d="M79.86,433.38c-7.57,0-11.78-1.11-14.17-3.4c-3.19-3.05-4.2-8.3-1.99-12.12c2.21-3.82,7.61-5.55,11.45-3.37
				c2.06,1.17,3.58,3.45,3.41,5.82c-0.17,2.37-2.31,4.55-4.67,4.38c-2.37-0.17-4.2-3.09-3.02-5.15"/>
		</g>
		<g class="st0">
			<g class="st3">
				<path class="st7" d="M262.87,488.54c-1.27-1.49,0.47-4.06,2.42-3.95c1.96,0.12,3.4,2.06,3.67,4c0.49,3.52-2.24,7.07-5.71,7.83
					c-3.47,0.75-7.25-1.12-9.05-4.18c-1.8-3.06-1.7-7.05-0.07-10.21c1.63-3.15,4.66-5.47,8.02-6.61c5-1.68,11.09-0.6,14.49,3.43
					c3.4,4.03,4.16,10.7,1,16.63h150.71"/>
				<path class="st7" d="M437.09,495.48c0-2.41-1.96-4.37-4.37-4.37s-4.37,1.96-4.37,4.37"/>
			</g>
			<g class="st3">
				<path class="st7" d="M237.13,488.54c1.27-1.49-0.47-4.06-2.42-3.95c-1.96,0.12-3.4,2.06-3.67,4c-0.49,3.52,2.24,7.07,5.71,7.83
					c3.47,0.75,7.25-1.12,9.05-4.18c1.8-3.06,1.7-7.05,0.07-10.21c-1.63-3.15-4.66-5.47-8.02-6.61c-5-1.68-11.09-0.6-14.49,3.43
					c-3.4,4.03-4.16,10.7-1,16.63H71.64"/>
				<path class="st7" d="M62.91,495.48c0-2.41,1.96-4.37,4.37-4.37c2.41,0,4.37,1.96,4.37,4.37"/>
			</g>
		</g>
		<g class="st0">
			<g class="st3">
				<path d="M237.78,348.16L237.78,348.16c6.75,0,12.22-5.47,12.22-12.22h0c0,6.75,5.47,12.22,12.22,12.22v0
					c-6.75,0-12.22,5.47-12.22,12.22h0C250,353.63,244.53,348.16,237.78,348.16z"/>
				<path d="M223.98,348.16L223.98,348.16c3.37,0,6.11-2.74,6.11-6.11h0c0,3.37,2.74,6.11,6.11,6.11v0c-3.37,0-6.11,2.74-6.11,6.11
					h0C230.09,350.9,227.36,348.16,223.98,348.16z"/>
				<path d="M263.8,348.16L263.8,348.16c3.37,0,6.11-2.74,6.11-6.11h0c0,3.37,2.74,6.11,6.11,6.11v0c-3.37,0-6.11,2.74-6.11,6.11h0
					C269.91,350.9,267.17,348.16,263.8,348.16z"/>
			</g>
			<g class="st3">
				<line class="st8" x1="66.6" y1="348.16" x2="217.66" y2="348.16"/>
				<circle cx="66.6" cy="348.16" r="4.21"/>
				<line class="st8" x1="433.4" y1="348.16" x2="282.34" y2="348.16"/>
				<circle cx="433.4" cy="348.16" r="4.21"/>
			</g>
		</g>
		<g class="st0">
			<g class="st3">
				<g>
					<path d="M265.45,282.5c6.26-1.7,8.3-4.34,11.94-4.34c3.99,0,4.67,4.34,4.67,4.34H265.45z"/>
					<path d="M265.45,282.5c6.26,1.71,8.3,4.34,11.94,4.34c3.99,0,4.67-4.34,4.67-4.34H265.45z"/>
				</g>
				<g>
					<path d="M234.55,282.5c-6.26-1.7-8.3-4.34-11.94-4.34c-3.99,0-4.67,4.34-4.67,4.34H234.55z"/>
					<path d="M234.55,282.5c-6.26,1.71-8.3,4.34-11.94,4.34c-3.99,0-4.67-4.34-4.67-4.34H234.55z"/>
				</g>
			</g>
			<g class="st3">
				<g>
					<path d="M421,282.5c6.26-1.7,8.3-4.34,11.94-4.34c3.99,0,4.67,4.34,4.67,4.34H421z"/>
					<path d="M421,282.5c6.26,1.71,8.3,4.34,11.94,4.34c3.99,0,4.67-4.34,4.67-4.34H421z"/>
				</g>
			</g>
			<path class="st3" d="M237.78,282.5L237.78,282.5c6.75,0,12.22-5.47,12.22-12.22h0c0,6.75,5.47,12.22,12.22,12.22v0
				c-6.75,0-12.22,5.47-12.22,12.22h0C250,287.97,244.53,282.5,237.78,282.5z"/>
			<g class="st3">
				<path d="M79,282.5c-6.26-1.7-8.3-4.34-11.94-4.34c-3.99,0-4.67,4.34-4.67,4.34H79z"/>
				<path d="M79,282.5c-6.26,1.71-8.3,4.34-11.94,4.34c-3.99,0-4.67-4.34-4.67-4.34H79z"/>
			</g>
			<line class="st9" x1="70.22" y1="282.5" x2="217.94" y2="282.5"/>
			<line class="st9" x1="282.06" y1="282.5" x2="426.85" y2="282.5"/>
		</g>
		<g>
			<path class="st5" d="M431.89,214.21c0.64,1.06,0.31,2.54-0.63,3.34c-0.94,0.8-2.37,0.9-3.48,0.36c-1.87-0.9-2.61-3.46-1.71-5.33
				c0.9-1.87,3.16-2.89,5.21-2.57c2.05,0.32,3.81,1.83,4.68,3.71c0.87,1.88,0.92,4.08,0.4,6.08c-1.46,5.66-7.78,9.59-13.5,8.39
				c-1.42-0.3-2.82-0.89-3.8-1.96c-0.97-1.07-1.44-2.68-0.89-4.02c0.55-1.34,2.24-2.18,3.55-1.56c1.38,0.65,1.77,2.58,1.13,3.98
				c-0.63,1.39-1.99,2.31-3.37,2.96c0,0-3.87,1.73-6.77,1.43H289.85"/>
			<path class="st5" d="M68.11,214.21c-0.64,1.06-0.31,2.54,0.63,3.34c0.94,0.8,2.37,0.9,3.48,0.36c1.87-0.9,2.61-3.46,1.71-5.33
				c-0.9-1.87-3.16-2.89-5.21-2.57c-2.05,0.32-3.81,1.83-4.68,3.71c-0.87,1.88-0.92,4.08-0.4,6.08c1.46,5.66,7.78,9.59,13.5,8.39
				c1.42-0.3,2.82-0.89,3.8-1.96c0.97-1.07,1.44-2.68,0.89-4.02c-0.55-1.34-2.24-2.18-3.55-1.56c-1.38,0.65-1.77,2.58-1.13,3.98
				c0.63,1.39,1.99,2.31,3.37,2.96c0,0,3.87,1.73,6.77,1.43h122.87"/>
			<g>
				<path class="st7" d="M210.54,217.55c-2.11,1.35-1.64,5.4,0.77,6.09c2.25,0.64,4.26-0.17,6.04-2.6c1.48-2.02,0.71-5.5-1.38-6.88
					c-9.24-6.09-17.4,8.67-7.83,13.95c3.84,2.12,8.78,0.38,12.24-2.32c3.46-2.7,6.08-6.35,9.48-9.13c3.4-2.78,8.13-4.66,12.17-2.94
					c2.65,1.13,4.59,3.79,4.84,6.66c0.25,2.87-1.18,5.83-3.6,7.41c-2.34,1.53-5.69,1.63-7.83-0.16c-2.14-1.8-2.46-5.55-0.34-7.37
					c2.12-1.82,6.16-0.49,6.41,2.29"/>
				<path class="st7" d="M290.25,217.55c2.11,1.35,1.64,5.4-0.77,6.09c-2.25,0.64-4.26-0.17-6.04-2.6c-1.48-2.02-0.71-5.5,1.38-6.88
					c9.24-6.09,17.4,8.67,7.83,13.95c-3.84,2.12-8.78,0.38-12.24-2.32c-3.46-2.7-6.08-6.35-9.48-9.13
					c-3.4-2.78-8.13-4.66-12.17-2.94c-2.65,1.13-4.59,3.79-4.84,6.66c-0.25,2.87,1.18,5.83,3.6,7.41c2.34,1.53,5.69,1.63,7.83-0.16
					c2.14-1.8,2.46-5.55,0.34-7.37c-2.12-1.82-6.16-0.49-6.41,2.29"/>
			</g>
		</g>
		<g class="st0">
			<g class="st3">
				<path class="st7" d="M266.72,155.76c2.38,1.52,1.85,6.09-0.87,6.86c-2.54,0.72-4.8-0.19-6.81-2.93c-1.67-2.28-0.8-6.2,1.56-7.75
					c10.41-6.87,19.61,9.77,8.83,15.73c-4.33,2.39-9.9,0.43-13.8-2.61c-3.91-3.04-6.85-7.16-10.68-10.3
					c-3.83-3.14-9.16-5.25-13.72-3.32c-2.99,1.27-5.17,4.27-5.46,7.51c-0.29,3.24,1.33,6.57,4.06,8.35
					c2.64,1.72,6.41,1.84,8.83-0.18c2.41-2.03,2.77-6.25,0.38-8.31c-2.39-2.06-6.94-0.56-7.23,2.58"/>
				<line class="st7" x1="274.26" y1="159.52" x2="439.62" y2="159.52"/>
				<line class="st7" x1="60.38" y1="159.52" x2="225.74" y2="159.52"/>
			</g>
			<g class="st3">
				<polygon points="107.58,153.37 91.63,159.52 107.58,165.67 116.18,159.52 				"/>
				<polygon points="392.42,153.37 408.37,159.52 392.42,165.67 383.82,159.52 				"/>
			</g>
			<g class="st3">
				<path d="M181.77,155.59c-3.29,0-5.15,2.39-10.83,3.93c5.68,1.55,7.53,3.93,10.83,3.93c3.62,0,4.24-3.93,4.24-3.93
					S185.39,155.59,181.77,155.59z"/>
				<path d="M318.23,155.59c-3.62,0-4.24,3.93-4.24,3.93s0.62,3.93,4.24,3.93c3.29,0,5.15-2.39,10.83-3.93
					C323.38,157.97,321.52,155.59,318.23,155.59z"/>
			</g>
		</g>
	</g>
</g>
</svg>
